# xmcd
#
# Track frame offsets: 
#        150
#        82275
#        99735
#        116335
#        142425
#        163718
#        273501
#
# Disc length: 4837 seconds
#
# Revision: 2
# Processed by: cddbd v1.5.2PL0 Copyright (c) Steve Scherf et al.
# Submitted via: ExactAudioCopy v0.99pb5
#
DISCID=6912e307
DTITLE=MIKE OLDFIELD - Airborn
DYEAR=1980
DGENRE=Prog/Rock*
TTITLE0=Platinum
TTITLE1=Guilty
TTITLE2=Into Wonderland
TTITLE3=Punkadiddle
TTITLE4=I Got Rhythm
TTITLE5=Tubular Bells (part one)
TTITLE6=Incantations (studio and live)
EXTD=
EXTT0=
EXTT1=
EXTT2=
EXTT3=
EXTT4=
EXTT5=
EXTT6=
PLAYORDER=
